<?xml version="1.0" encoding="utf-8"?>
<!-- Generator: Adobe Illustrator 24.1.2, SVG Export Plug-In . SVG Version: 6.00 Build 0)  -->
<svg version="1.1" id="Иконки" xmlns="http://www.w3.org/2000/svg" xmlns:xlink="http://www.w3.org/1999/xlink" x="0px"
	 y="0px" viewBox="0 0 128 128" style="enable-background:new 0 0 128 128;" xml:space="preserve">
<style type="text/css">
	.st0{fill:#FFFFFF;}
</style>
<g id="Друзья">
	<circle id="Голова_1" class="st0" cx="52.65" cy="47" r="18"/>
	<path id="Тело_1" class="st0" d="M52.65,67c-16.1,0-29.43,11.89-31.67,27.37c-0.35,2.43,1.5,4.63,3.96,4.63h55.42
		c2.46,0,4.31-2.19,3.96-4.63C82.08,78.89,68.76,67,52.65,67z"/>
	<circle id="Голова_2" class="st0" cx="83.5" cy="60.37" r="13.37"/>
	<path id="Тело_2" class="st0" d="M107.02,95.56c-1.67-11.5-11.56-20.33-23.52-20.33c-2.04,0-4.01,0.27-5.9,0.76
		c4.54,4.9,7.69,11.13,8.7,18.1c0.25,1.75-0.26,3.52-1.41,4.85c-0.02,0.02-0.04,0.04-0.06,0.07h19.26
		C105.91,99,107.29,97.37,107.02,95.56z"/>
</g>
</svg>
