<?xml version="1.0" encoding="utf-8"?>
<!-- Generator: Adobe Illustrator 24.1.2, SVG Export Plug-In . SVG Version: 6.00 Build 0)  -->
<svg version="1.1" id="Иконки" xmlns="http://www.w3.org/2000/svg" xmlns:xlink="http://www.w3.org/1999/xlink" x="0px"
	 y="0px" viewBox="0 0 128 128" style="enable-background:new 0 0 128 128;" xml:space="preserve">
<style type="text/css">
	.st0{fill:#FFFFFF;}
</style>
<g id="Книга_1_">
	<path class="st0" d="M95.72,47.17C83.4,35.38,71.31,43.71,66.3,48.24c-0.83,0.75-1.3,1.83-1.3,2.95v31.69
		c0,2.99,3.15,4.88,5.83,3.55c7.28-3.61,14.84-2.73,19.52-1.53c2.57,0.65,4.8-0.99,4.95-3.64c0.49-8.54,1.44-25.17,1.65-31.05
		C97,49.07,96.55,47.96,95.72,47.17z"/>
	<path class="st0" d="M32.28,47.18c-0.82,0.79-1.27,1.89-1.23,3.03c0.22,5.88,1.16,22.51,1.65,31.05c0.15,2.67,2.39,4.29,4.97,3.63
		c4.69-1.19,12.23-2.07,19.5,1.54c2.68,1.33,5.83-0.56,5.83-3.55c0-9.84,0-26.37,0-31.7c0-1.12-0.46-2.19-1.3-2.94
		C56.69,43.71,44.6,35.38,32.28,47.18z"/>
</g>
</svg>
